REM DIRINDEX 1\5,1\2\6,1\2\7,1\3\8,1\3\9,1\4\10,1\4\11,1\4\12
REM DIRNAME cjc026,folder01,folder02,folder03,folder04,folder05,folder06,folder07,folder08,folder09,folder10,folder11
TITLE ""
FILE "EJE_DB3000_5th_2A_40.mp3" MP3
  TRACK 01 AUDIO
    TITLE "0:"
    INDEX 01 00:00:00
  TRACK 02 AUDIO
    TITLE "10:cjc026_07974"
    INDEX 01 00:00:08
  TRACK 03 AUDIO
    TITLE "0:"
    INDEX 01 00:01:30
  TRACK 04 AUDIO
    TITLE "11:cjc026_07975"
    INDEX 01 00:01:65
  TRACK 05 AUDIO
    TITLE "0:"
    INDEX 01 00:03:04
  TRACK 06 AUDIO
    TITLE "12:cjc026_07976"
    INDEX 01 00:03:36
  TRACK 07 AUDIO
    TITLE "0:"
    INDEX 01 00:04:61
  TRACK 08 AUDIO
    TITLE "10:cjc026_07977"
    INDEX 01 00:05:21
  TRACK 09 AUDIO
    TITLE "0:"
    INDEX 01 00:06:49
  TRACK 10 AUDIO
    TITLE "11:cjc026_07978"
    INDEX 01 00:07:12
  TRACK 11 AUDIO
    TITLE "0:"
    INDEX 01 00:08:48
  TRACK 12 AUDIO
    TITLE "12:cjc026_07979"
    INDEX 01 00:09:08
  TRACK 13 AUDIO
    TITLE "0:"
    INDEX 01 00:10:35
  TRACK 14 AUDIO
    TITLE "10:cjc026_07980"
    INDEX 01 00:11:01
  TRACK 15 AUDIO
    TITLE "0:"
    INDEX 01 00:12:15
  TRACK 16 AUDIO
    TITLE "11:cjc026_07981"
    INDEX 01 00:12:53
  TRACK 17 AUDIO
    TITLE "0:"
    INDEX 01 00:13:69
  TRACK 18 AUDIO
    TITLE "12:cjc026_07982"
    INDEX 01 00:14:32
  TRACK 19 AUDIO
    TITLE "0:"
    INDEX 01 00:15:46
  TRACK 20 AUDIO
    TITLE "10:cjc026_07983"
    INDEX 01 00:16:06
  TRACK 21 AUDIO
    TITLE "0:"
    INDEX 01 00:17:18
  TRACK 22 AUDIO
    TITLE "11:cjc026_07984"
    INDEX 01 00:17:56
  TRACK 23 AUDIO
    TITLE "0:"
    INDEX 01 00:19:19
  TRACK 24 AUDIO
    TITLE "12:cjc026_07985"
    INDEX 01 00:19:57
  TRACK 25 AUDIO
    TITLE "0:"
    INDEX 01 00:20:66
  TRACK 26 AUDIO
    TITLE "10:cjc026_07986"
    INDEX 01 00:21:31
  TRACK 27 AUDIO
    TITLE "0:"
    INDEX 01 00:22:45
  TRACK 28 AUDIO
    TITLE "11:cjc026_07987"
    INDEX 01 00:23:08
  TRACK 29 AUDIO
    TITLE "0:"
    INDEX 01 00:24:14
  TRACK 30 AUDIO
    TITLE "12:cjc026_07988"
    INDEX 01 00:24:52
  TRACK 31 AUDIO
    TITLE "0:"
    INDEX 01 00:25:66
  TRACK 32 AUDIO
    TITLE "10:cjc026_07989"
    INDEX 01 00:26:29
  TRACK 33 AUDIO
    TITLE "0:"
    INDEX 01 00:27:43
  TRACK 34 AUDIO
    TITLE "11:cjc026_07990"
    INDEX 01 00:28:03
  TRACK 35 AUDIO
    TITLE "0:"
    INDEX 01 00:29:20
  TRACK 36 AUDIO
    TITLE "12:cjc026_07991"
    INDEX 01 00:29:57
  TRACK 37 AUDIO
    TITLE "0:"
    INDEX 01 00:30:72
  TRACK 38 AUDIO
    TITLE "10:cjc026_07992"
    INDEX 01 00:31:29
  TRACK 39 AUDIO
    TITLE "0:"
    INDEX 01 00:32:48
  TRACK 40 AUDIO
    TITLE "11:cjc026_07993"
    INDEX 01 00:33:08
  TRACK 41 AUDIO
    TITLE "0:"
    INDEX 01 00:34:47
  TRACK 42 AUDIO
    TITLE "12:cjc026_07994"
    INDEX 01 00:35:07
  TRACK 43 AUDIO
    TITLE "0:"
    INDEX 01 00:36:27
  TRACK 44 AUDIO
    TITLE "10:cjc026_07995"
    INDEX 01 00:36:64
  TRACK 45 AUDIO
    TITLE "0:"
    INDEX 01 00:38:11
  TRACK 46 AUDIO
    TITLE "11:cjc026_07996"
    INDEX 01 00:38:49
  TRACK 47 AUDIO
    TITLE "0:"
    INDEX 01 00:39:58
  TRACK 48 AUDIO
    TITLE "12:cjc026_07997"
    INDEX 01 00:40:26
  TRACK 49 AUDIO
    TITLE "0:"
    INDEX 01 00:41:46
  TRACK 50 AUDIO
    TITLE "10:cjc026_07998"
    INDEX 01 00:42:09
  TRACK 51 AUDIO
    TITLE "0:"
    INDEX 01 00:43:23
  TRACK 52 AUDIO
    TITLE "11:cjc026_07999"
    INDEX 01 00:43:60
  TRACK 53 AUDIO
    TITLE "0:"
    INDEX 01 00:45:05
  TRACK 54 AUDIO
    TITLE "12:cjc026_08000"
    INDEX 01 00:45:40
  TRACK 55 AUDIO
    TITLE "0:"
    INDEX 01 00:46:57
  TRACK 56 AUDIO
    TITLE "10:cjc026_08001"
    INDEX 01 00:47:17
  TRACK 57 AUDIO
    TITLE "0:"
    INDEX 01 00:48:39
  TRACK 58 AUDIO
    TITLE "11:cjc026_08002"
    INDEX 01 00:48:74
  TRACK 59 AUDIO
    TITLE "0:"
    INDEX 01 00:51:00
  TRACK 60 AUDIO
    TITLE "12:cjc026_08003"
    INDEX 01 00:51:36
  TRACK 61 AUDIO
    TITLE "0:"
    INDEX 01 00:52:58
  TRACK 62 AUDIO
    TITLE "10:cjc026_08004"
    INDEX 01 00:53:18
  TRACK 63 AUDIO
    TITLE "0:"
    INDEX 01 00:54:35
  TRACK 64 AUDIO
    TITLE "11:cjc026_08005"
    INDEX 01 00:54:72
  TRACK 65 AUDIO
    TITLE "0:"
    INDEX 01 00:57:18
  TRACK 66 AUDIO
    TITLE "12:cjc026_08006"
    INDEX 01 00:57:53
  TRACK 67 AUDIO
    TITLE "0:"
    INDEX 01 00:58:69
  TRACK 68 AUDIO
    TITLE "10:cjc026_08007"
    INDEX 01 00:59:30
  TRACK 69 AUDIO
    TITLE "0:"
    INDEX 01 01:00:52
  TRACK 70 AUDIO
    TITLE "11:cjc026_08008"
    INDEX 01 01:01:12
  TRACK 71 AUDIO
    TITLE "0:"
    INDEX 01 01:03:16
  TRACK 72 AUDIO
    TITLE "12:cjc026_08009"
    INDEX 01 01:03:51
  TRACK 73 AUDIO
    TITLE "0:"
    INDEX 01 01:04:70
